<svg xmlns="http://www.w3.org/2000/svg" viewBox="0 0 64 64" role="img" aria-label="The Austin Bulletin">
  <title>The Austin Bulletin</title>
  <!-- Broadsheet mark: an oxblood plate with a limestone keyline and a
       Source Serif 4 Bold "A" (glyph outline, so no webfont is needed).
       The keyline sits on the pixel grid at 16px. See scripts/favicon.mjs. -->
  <rect width="64" height="64" fill="#7a1f1f"/>
  <rect x="6" y="6" width="52" height="52" fill="none" stroke="#f6efe2" stroke-width="4"/>
  <path transform="translate(12.65 50) scale(0.05463)" fill="#f6efe2" d="M237 0L11 0L11-65L115-72L136-72L237-65L237 0M135 0L62 0L291-659L423-659L655 0L473 0L295-547L298-547L278-444L135 0M489-187L173-187L173-250L489-250L489-187M698 0L369 0L369-63L489-71L571-71L698-63"/>
</svg>
